Coordinates
version=1
nRows=5
nColumns=40
inDegrees=yes

Units are S.I. units (second, meters, Newtons, ...)
Angles are in degrees.

endheader
time	pelvis_tilt	pelvis_list	pelvis_rotation	pelvis_tx	pelvis_ty	pelvis_tz	hip_flexion_r	hip_adduction_r	hip_rotation_r	knee_angle_r	knee_angle_r_beta	ankle_angle_r	subtalar_angle_r	mtp_angle_r	hip_flexion_l	hip_adduction_l	hip_rotation_l	knee_angle_l	knee_angle_l_beta	ankle_angle_l	subtalar_angle_l	mtp_angle_l	lumbar_extension	lumbar_bending	lumbar_rotation	arm_flex_r	arm_add_r	arm_rot_r	elbow_flex_r	pro_sup_r	wrist_flex_r	wrist_dev_r	arm_flex_l	arm_add_l	arm_rot_l	elbow_flex_l	pro_sup_l	wrist_flex_l	wrist_dev_l
     10.77000000	     -3.70590366	     -4.28636216	      5.53318020	      0.73041932	      0.93488356	      0.50060435	     11.70923906	      2.77986992	    -16.96830714	     17.10651162	     17.10651162	     10.63631556	      3.84906994	     -1.06225623	     29.20220055	    -11.14907438	     -1.59945962	     52.03177076	     52.03177076	      9.78615187	    -16.87938705	      9.21868732	    -11.22695986	      8.92904419	      2.53139126	     22.71315757	    -18.66016620	     -7.83716893	     66.76729858	     44.82915928	      0.00000000	      0.00000000	     -6.55945031	    -11.31258477	     -2.89714258	     57.24975049	     45.65270062	      0.00000000	      0.00000000
     10.78321429	     -3.71308533	     -4.16178485	      5.69343856	      0.72889799	      0.93491912	      0.50020577	     11.47055095	      2.54931719	    -17.25815347	     17.44847279	     17.44847279	     11.00409720	      4.12892079	     -1.27187130	     29.67657907	    -10.93185154	     -1.86211305	     48.97001758	     48.97001758	     10.30017695	    -16.66472249	      9.30965210	    -11.28733703	      9.02230654	      2.73429581	     23.55240616	    -18.53673567	     -7.78271781	     66.86341274	     44.83899704	      0.00000000	      0.00000000	     -6.71760189	    -11.37914846	     -2.84929781	     57.00438227	     45.66612413	      0.00000000	      0.00000000
     10.79642857	     -3.78243295	     -4.08626198	      5.82853856	      0.72736661	      0.93482524	      0.49986362	     11.23671983	      2.43873474	    -17.30937165	     17.61211239	     17.61211239	     11.32368928	      4.09999085	     -1.39824195	     30.00983431	    -10.74991029	     -2.15324327	     45.57279024	     45.57279024	     10.71669057	    -16.14085487	      9.42202146	    -11.27786244	      9.13953433	      3.02375982	     24.26604332	    -18.52008948	     -7.72891348	     67.06237875	     44.83795929	      0.00000000	      0.00000000	     -6.92383792	    -11.40402032	     -2.79162581	     56.95330214	     45.66647194	      0.00000000	      0.00000000
     10.80964286	     -3.75330924	     -3.96833253	      5.94921354	      0.72594434	      0.93483132	      0.49944845	     10.91621823	      2.27359158	    -17.40795864	     17.84865125	     17.84865125	     11.67181912	      4.15244934	     -1.50989843	     30.02125439	    -10.46196164	     -2.41210840	     41.90643560	     41.90643560	     10.93197641	    -15.56606930	      9.48207482	    -11.37810991	      9.21116344	      3.23136137	     24.98866839	    -18.39101262	     -7.58493435	     67.21782648	     44.83639327	      0.00000000	      0.00000000	     -7.16840146	    -11.54044840	     -2.69882073	     56.89045007	     45.66618750	      0.00000000	      0.00000000
     10.82285714	     -3.75033700	     -3.83895483	      6.07242907	      0.72453563	      0.93466400	      0.49881366	     10.63035544	      2.00056203	    -17.86099972	     18.15671026	     18.15671026	     12.28718074	      4.85540200	     -1.22440937	     29.84773169	    -10.06730120	     -2.55295700	     37.94918546	     37.94918546	     10.34264813	    -15.14845443	      7.84518055	    -11.41200599	      9.28499177	      3.00775983	     26.18428104	    -18.09150717	     -6.77408069	     66.58122919	     44.86659184	      0.00000000	      0.00000000	     -7.71783664	    -11.84582480	     -2.25184399	     56.96751715	     45.68934209	      0.00000000	      0.00000000
